# xmcd CD database file
#
# Track frame offsets:
#	150
#	17928
#	30627
#	61447
#	95119
#
# Disc length: 1689 seconds
#
# Revision: 0
# Processed by: cddbd v1.5.1PL0 Copyright (c) Steve Scherf et al.
# Submitted via: CDex 1.51
#
DISCID=3f069705
DTITLE=Pau Torres - The Anti-Song
DYEAR=2003
DGENRE=Jazz
TTITLE0=The Anti-Song
TTITLE1=Free Jazz #7
TTITLE2=NyBB Waker
TTITLE3=Man on Guns
TTITLE4=The Station
EXTD=YEAR: 2003
EXTT0=
EXTT1=
EXTT2=
EXTT3=
EXTT4=
PLAYORDER=
